<svg width="268" height="78" viewBox="0 0 268 78" fill="none" xmlns="http://www.w3.org/2000/svg">
<path d="M256.833 0H11.1667C4.99949 0 0 4.47715 0 10V68C0 73.5229 4.99949 78 11.1667 78H256.833C263.001 78 268 73.5229 268 68V10C268 4.47715 263.001 0 256.833 0Z" fill="#E0B973"/>
<path d="M92.925 36.9C94.35 36.15 95.25 34.8 95.25 33.05C95.25 30.325 93 28.5 88.625 28.5H80.075V46H89.125C93.725 46 96.125 44.25 96.125 41.225C96.125 39.025 94.875 37.525 92.925 36.9ZM88.125 31.55C90.1 31.55 91.175 32.225 91.175 33.6C91.175 34.975 90.1 35.675 88.125 35.675H84.1V31.55H88.125ZM88.825 42.95H84.1V38.625H88.825C90.925 38.625 92.05 39.325 92.05 40.8C92.05 42.3 90.925 42.95 88.825 42.95ZM107.666 46.3C113.166 46.3 117.241 42.475 117.241 37.25C117.241 32.025 113.166 28.2 107.666 28.2C102.141 28.2 98.0912 32.05 98.0912 37.25C98.0912 42.45 102.141 46.3 107.666 46.3ZM107.666 42.85C104.541 42.85 102.191 40.575 102.191 37.25C102.191 33.925 104.541 31.65 107.666 31.65C110.791 31.65 113.141 33.925 113.141 37.25C113.141 40.575 110.791 42.85 107.666 42.85ZM128.76 46.3C134.26 46.3 138.335 42.475 138.335 37.25C138.335 32.025 134.26 28.2 128.76 28.2C123.235 28.2 119.185 32.05 119.185 37.25C119.185 42.45 123.235 46.3 128.76 46.3ZM128.76 42.85C125.635 42.85 123.285 40.575 123.285 37.25C123.285 33.925 125.635 31.65 128.76 31.65C131.885 31.65 134.235 33.925 134.235 37.25C134.235 40.575 131.885 42.85 128.76 42.85ZM153.354 46H158.079L150.404 36.3L157.654 28.5H153.154L145.404 36.675V28.5H141.379V46H145.404V41.575L147.754 39.125L153.354 46ZM179.015 28.5V39.125L170.315 28.5H166.965V46H170.965V35.375L179.69 46H183.015V28.5H179.015ZM195.63 46.3C201.13 46.3 205.205 42.475 205.205 37.25C205.205 32.025 201.13 28.2 195.63 28.2C190.105 28.2 186.055 32.05 186.055 37.25C186.055 42.45 190.105 46.3 195.63 46.3ZM195.63 42.85C192.505 42.85 190.155 40.575 190.155 37.25C190.155 33.925 192.505 31.65 195.63 31.65C198.755 31.65 201.105 33.925 201.105 37.25C201.105 40.575 198.755 42.85 195.63 42.85ZM230.238 28.5L226.163 40.9L222.163 28.5H218.413L214.288 40.8L210.338 28.5H206.138L211.888 46H216.213L220.188 34.15L224.038 46H228.388L234.113 28.5H230.238Z" fill="white"/>
<path d="M44.8333 23H47.1666V25.3333H44.8333V23Z" fill="white"/>
<path d="M51.8333 23H54.1666V25.3333H51.8333V23Z" fill="white"/>
<path d="M37.8333 23H40.1666V25.3333H37.8333V23Z" fill="white"/>
<path d="M58.8333 25.3333H54.1667V28.8333H51.8333V25.3333H47.1667V28.8333H44.8333V25.3333H40.1667V28.8333H37.8333V25.3333H33.1667C32.8572 25.3333 32.5605 25.4562 32.3417 25.675C32.1229 25.8938 32 26.1906 32 26.5V47.5C32 47.8094 32.1229 48.1061 32.3417 48.3249C32.5605 48.5437 32.8572 48.6666 33.1667 48.6666H58.8333C59.1427 48.6666 59.4395 48.5437 59.6583 48.3249C59.8771 48.1061 60 47.8094 60 47.5V26.5C60 26.1906 59.8771 25.8938 59.6583 25.675C59.4395 25.4562 59.1427 25.3333 58.8333 25.3333ZM53.4887 40.2827L51.8333 39.1V44C51.8333 44.3094 51.7104 44.6061 51.4916 44.8249C51.2728 45.0437 50.9761 45.1666 50.6667 45.1666H47.75V40.5C47.75 40.1906 47.6271 39.8938 47.4083 39.675C47.1895 39.4562 46.8927 39.3333 46.5833 39.3333H45.4167C45.1072 39.3333 44.8105 39.4562 44.5917 39.675C44.3729 39.8938 44.25 40.1906 44.25 40.5V45.1666H41.3333C41.0239 45.1666 40.7272 45.0437 40.5084 44.8249C40.2896 44.6061 40.1667 44.3094 40.1667 44V39.1L38.5115 40.2827L37.1552 38.3839L45.3219 32.5506C45.5206 32.4113 45.7573 32.3366 46 32.3366C46.2427 32.3366 46.4794 32.4113 46.6781 32.5506L54.8448 38.3839L53.4887 40.2827Z" fill="white"/>
</svg>
